<?xml version="1.0" encoding="UTF-8"?>
<svg id="Layer_1" xmlns="http://www.w3.org/2000/svg" version="1.1" viewBox="0 0 160 160">
  <!-- Generator: Adobe Illustrator 29.8.9, SVG Export Plug-In . SVG Version: 2.1.1 Build 1)  -->
  <defs>
    <style>
      .st0 {
        fill: #fff;
      }
    </style>
  </defs>
  <path d="M160,0v160H0V0h160ZM78.3,4.2C34.3,5.8.6,46.8,6.5,90.4c5.7,41.5,45.2,71.2,86.9,63.6,45.8-8.4,71.8-56.7,55.9-100.2C138.5,24.3,110.3,3.1,78.3,4.2Z"/>
  <path class="st0" d="M78.3,4.2c32-1.2,60.2,20,71,49.5,15.9,43.5-10.1,91.8-55.9,100.2-41.7,7.6-81.2-22.1-86.9-63.6C.6,46.8,34.3,5.8,78.3,4.2ZM71.7,9.8l-2.4.4-1.8,5.9-1.1-5.2c-.2-.3-1.8.4-2.2.3l2.5,13.1,2.1-.4c0-1.8-1.3-3.7,0-5.3.3,0,2.6,4.4,3.1,4.7s1.8-.3,2.4-.3l-4.5-6.7,1.9-6.3ZM97.2,15.3c.3-1.4.9-3-.5-4s-3.6-1.1-4.3-1.1-1.7.6-2,1.5-.6,2.7-.7,3.4,0,.5,0,.8c.2.8,2.5,2,3.3,2.6s1,.6,1,.9l-.6,2.3c-.4.2-2.2,0-2.5-.4s0-1.1.1-1.6l-2.3-.4c-.4,1.5-.8,3.5,1,4.1s3.5.8,4.3.7,1-.5,1.2-.8,1.1-3.6,1.1-4.3,0-.8-.4-1.1c-.5-.5-3.7-2.3-3.9-2.6s.2-2.4.5-2.6,2.4.1,2.5.5-.2,1.2-.2,1.7l2.3.4ZM58.8,22.5l-2,1c.1.6,1,1.5.4,2s-1.8.9-2.1.7l-3.6-7.6c0-.5,1.9-1.3,2.3-1.2s.6,1.4.9,1.5l2-.8c.2-.1,0-.1,0-.3-.5-1.4-1.3-3.3-3.1-2.9s-3.2,1.4-3.6,1.6c-.9.6-1.3,1.7-.9,2.7,1.5,2.4,2.4,6.1,4,8.4s1.4,1.2,2.4,1,3.5-1.6,3.9-2c1.2-1.5,0-2.7-.5-4.1ZM105.8,29c1.1.4,2.2.7,3-.3s1.9-3.6,2.4-4.7,1.9-3.6,2-4.3c.3-1.6-.6-2.1-1.8-2.8s-3.6-2.1-4.9-.7-1.4,2.6-1.8,3.4c-.5,1.1-2.5,4.8-2.7,5.8s.5,2.4,1.8,2.7l-.6,1.8,1.7.9.7-1.6ZM42.4,37.6c.2,0,.2,0,.3-.1.2-.1,1.4-1.3,1.4-1.4.1-.5-1.2-1.8-.9-2.3s1.9-1.3,2.2-1.9l2.1,1.6,1.7-1.4-10.6-8.5-2.1,1.8,5.8,12.2ZM122.2,23.7l-7,8.4c-.7.8-.9,1.9-.3,2.8s2.6,2.5,3.1,2.8c.8.5,1.9.3,2.6-.3l7.2-8.7c0,0-1.3-1.2-1.4-1.3s-.2-.2-.3,0l-6.8,8.1c-.3.2-.9-.3-1.2-.6-.4-.4-1.2-1-.7-1.5l6.7-8.1-1.8-1.5ZM126.1,101.4c1.3-3.3,2.5-6.6,3.3-10.1,7.9-34.8-20.3-69-56.5-63.6-28.8,4.3-47.7,33.1-42.7,61.4s2,8.3,3.7,12.2l1.1-1.6c-1.5-4-2.8-8.1-3.4-12.4-4-26.9,14.4-54,41.7-57.9,34-4.9,60.9,26.3,55,59.2s-1.9,7.7-3.4,11.4c.1.2,1,1.6,1.3,1.4ZM91.9,57c.7-.9,1.5-2,2.1-3.1,1.3-2.4,1.1-3.1,0-5.4-2.4-4.9-7.4-11.9-11.1-15.9s-2.2-2.5-3.3-2.2-3.2,3-4,3.9c-3.1,3.6-6.4,8.4-8.7,12.6s-2.1,3.7-1.9,5.1,2.6,5.3,2.9,5.1c1-4,2.5-7.9,4.2-11.7l1.8-3.5c-3.3,9.5-7.5,19.6-5.3,29.9,1.2.2,1.9.4,2.9,1.2,1.9,1.6,3.1,4.2,2.9,6.7l-1.2-3.2c-.4-1.5-4.2-4.8-5.5-2.9s.2.5.6.5c2.7,0,4.4,3,4.6,5.4s-.9,7.1-4.4,7.1c-.3,3.5-3.7,5.7-7,4.6s-3.8-8.1-9.9-9.2-10.7,5.6-7.6,11.1,2,2.7,3.1,2.8-.3-1.5-.6-1.9c-4-6,3.8-12.5,7.6-6.1s1.4,3.6,2.8,5.2c3.7,4.2,10,3.1,12.9-1.3,0,.3-.3.8-.4,1.1-3.3,6.1-9.4,8.6-16.1,6.7s-9.5-3.7-14.8-.7c-4.9,2.7-7.1,10.8-1.4,13.5s8.3-.7,6.9-4.6-2.1-2.6-2.7-1.2c2.2,1,1.4,4-.8,4.3-4.2.6-5.2-4.3-3-7.2s6.8-3.2,10.3-2,6.3,3.1,11.3,2.6,11.7-5.4,13.1-11.6c-.1,1.6-.7,3.3-1.2,4.8-4,10.3-13.4,14.1-22.6,7s-1.7-1.8-2.1-1.3c-.1.6.3,1.1.6,1.6,4.3,6.3,13.8,8.6,20.4,4.8s7-8.2,7.8-13.5l.4-3.1c0,5.7-.9,11.5-3,16.9s-5.9,10.6-4,15.8,10.4,3.2,8.1-2.1-2-2.5-3.1-2.5,1,2.1,1.2,2.5c1.7,3.2-2.6,5.2-3.8,2s3.5-9.4,5.1-12.6,3.2-9.3,3.5-14.3,0-1.4,0-2,0-.4.3-.4c0,6.1,1,12,3.9,17.4s2.9,4.3,4,6.7,1.6,3.8.7,5.6c-1.3,2.8-5.4,1-3.8-2.1s1.6-1.7,1.6-2.1,0-.3-.1-.4c-1.7-.2-3.5,1.8-3.7,3.4-.7,5,5.9,6.3,8.1,1.8s-2-11.8-3.8-16.6-2.8-10-3-15.1,0-2.1,0-2.1c.6,7.6,3.1,16.1,11.3,18.3,6.2,1.7,13.1-.4,17-5.5s2-2.6.6-2.1-1.9,1.6-2.5,2c-8,5.8-16.8,2.8-20.9-5.8s-1.8-4.4-2-6.3-.1-.4,0-.4c2,9.1,11.5,13.7,20.2,10.8s7-3.7,11.5-1.9,6,5.8,2.9,8.5-6.2,0-4.9-2.5,1.5-1.1.9-1.5-2.2.8-2.5,1.5c-1.7,4.2,4.3,6.9,7.8,4.1s2.1-10.7-2.6-13.1c-7.4-3.8-13.2,2.2-20.4,1.5s-8.6-3.9-10.5-8-.3-.3,0-.4c3.5,5.2,10.7,5.5,14-.2s1.2-2.7,1.9-4c3.6-5.7,11-.1,7.7,5.8s-1.8,2-1.3,2.3c.6.2,1.3-.4,1.7-.7,6-4.8,1.6-14.6-6.1-13.1s-5.1,7.4-9.4,9.1-7.2-.9-7.1-4.5c-3.6,0-4.9-4-4.6-7.1s2-5.4,4.6-5.4,1.1.3,1,0c-.4-1.3-2-1-3-.6-2.1,1-3.5,4-3.9,6.2-.2,0-.1-.3-.1-.4-.1-3.2,2.4-7.3,5.9-7.5,2.3-10.3-2.1-20.4-5.3-30l1.8,3.6c1.7,3.8,3.3,7.6,4.2,11.7ZM59.8,34.8h13.3s.5-.7.4-.8c-3.1,0-6.3,0-9.4.1s-2.4-.2-3.2,0-1.1.5-1.2.7ZM86.4,34.8h14l-1.7-.8c-2.4,0-4.8,0-7.1,0s-4-.2-5.2,0-.2,0-.3.2c.2,0,.4.6.4.6ZM125.2,46.3l10.7-7.7c.2-.2.1-.3,0-.4s-1.1-1.6-1.2-1.6l-10.6,7.8c-.4.5,1,1.4,1,2ZM36.8,40.5l-2.6,3.4-8.8-6.6-1.3,1.9,10.4,7.9,4.1-5.2v-.2s-1.7-1.2-1.7-1.2ZM70.6,38.1h-16.7s-.6.6-.8.5v.3s17,0,17,0l.4-.8ZM106.3,38.1h-17.3v.2c.1,0,.5.6.6.6h17.5v-.3c-.3,0-.6-.5-.8-.5ZM67.8,42.4h-19.2s-.5.5-.6.6h19.5l.3-.6ZM112.3,43c0-.1-.5-.6-.6-.6h-19.8l.4.6h20ZM65.3,46.4h-20.8l-.4.6h20.9l.3-.6ZM116.1,47.1c0-.1-.5-.6-.6-.6h-21.1l.3.6h21.4ZM141.1,46.8l-12.2,5.6,2.3,5.1c.6.9,1.5,1.4,2.6,1.1,2.5-1.3,5.2-2.3,7.7-3.5s2.5-1.1,2.1-3.1l-2.4-5.2ZM24.5,50.8c0-.9-.3-1.4-1-1.8s-2.3-1.2-2.7-1.2c-1.1-.2-1.9,0-2.5,1s-2,3.8-2.2,4.7,0,.2,0,.4l12,5.6c.2,0,.4-.5.4-.7.5-1.1,1.6-3.1,1.9-4.2s.1-1.7-.5-2.4-3-1.7-3.5-1.8-.6-.1-1,0-.6.4-1,.5ZM41.1,51.2h22.2v-.8c-.6,0-1.3,0-2,0-6.1.2-12.4.2-18.5.1s-1.2-.5-1.7.6ZM119,51.2c0-.3-.3-.7-.6-.8-1.7,0-3.5,0-5.2,0-4.5,0-9,.2-13.5.1s-2.2-.3-3.2-.1-.2,0-.3.2v.6h22.8ZM64.7,55.2l-.3-.6h-12.6c-3.9.2-8.4-.5-12.3-.1s-.7.2-.8.8h26ZM94.8,55.2h26.7l-.3-.7h-25.6c-.5,0-.6.4-.8.7ZM67,58.6h-30.1l-.3.6h.2c0,.1,29.6.2,29.6.2.4,0,.6-.4.6-.8ZM123.3,58.6h-30.5c0,.5-.1.7.4.8,1.7.2,4.2,0,6,0,7,0,14,0,21,0s2.2,0,3.3-.1l-.3-.6ZM35.1,63.3h31.3c.2-.6,0-.8-.5-.8-9.5.4-19.4-.4-28.8,0s-1.2.2-1.8.1v.6ZM124.9,63.3c0-.2-.1-.8-.3-.8h-31.3v.8h31.6ZM66.3,66.6h-32.2l-.3.6h32.5v-.6ZM126.1,67.2c0-.4,0-.7-.4-.6h-32.2s-.1.6-.1.6h32.8ZM66.7,71.3c0-.4,0-.8-.4-.8h-33.1c0,0-.1.8-.1.8h33.7ZM127,71.3c0-.4,0-.8-.4-.8h-33.1c-.4,0-.4.2-.5.5v.3h34ZM64.9,75.3l.4-.8c0,0-.2.1-.2.1h-32.6v.6h32.4ZM94.9,75.3h32.6v-.6c-1-.4-2.1,0-3,0-7.8,0-15.6-.1-23.4-.1s-4.1-.1-6,0-.8,0-.8.2c.1,0,.5.5.6.6ZM68,75.3c-4.4.2-3.9,10.1.5,9.9s3.3-3.5,3.1-5.4-1.5-4.6-3.6-4.5ZM91.3,75.3c-4.1.4-4.3,8.9-.7,9.9s4.2-2.8,4.2-5-1.1-5.1-3.5-4.9ZM63.4,78.6h-31.1v.6h31.1v-.6ZM127.7,78.6h-31.5v.6h31.5v-.6ZM44.1,82.6h-11.7c0,.5-.1.7.4.8,3.2.4,7.1-.3,10.3,0,.3.1,1.1-.6,1-.8ZM63.7,82.6h-7.5c0,.4.5.7.8.8,1.3.2,3-.1,4.3-.1s1.7.3,2.5.1v-.8ZM103.5,82.6h-7.5l-.3.6h7.2s.5-.5.6-.6ZM127.6,82.6h-12.1v.2c0,0,.4.4.4.4h11.7v-.6ZM41.7,86.6h-8.9s.2.6.2.6c2.9,0,5.7,0,8.6,0v-.6ZM92.9,87.3h7.5c0,0,.4-.5.3-.6-.2-.2-3.9-.1-4.5-.1s-.5.1-.7.1c-.8,0-2.2-.6-2.5.7ZM127.1,87.3v-.6c0,0,0-.2,0-.2h-9.1v.8h9.2ZM66.3,86.6h-7.5l.3.6h7.7c.1-.2-.3-.6-.4-.6ZM107.4,91.2h3.8c.2,0,.3-.7,0-.7h-3.6c0,0-.2.7-.2.7ZM41.5,90.6h-7.9v.4s.2.2.2.2h7.7v-.6ZM51.9,90.6h-3.7v.4c-.1,0,0,.2,0,.2h3.8v-.6ZM126.4,90.6h-8.1l-.2.2v.4s8.1,0,8.1,0v-.6ZM34.9,95.4h5.6v-.6c-.6.1-1.4-.1-2-.1s-.5.1-.8.1c-1,0-2,0-3,0l.2.6ZM125.3,94.8c-.6-.2-1.1,0-1.7,0-.9,0-2-.1-2.9-.1s-.9.2-1.4.1c-.2,0,0,.7.2.6,1.6-.2,3.6.2,5.2,0s.5-.2.6-.6ZM57.8,96.1c0-.1-.8-.8-.8-.8h-7.1c0,.3,0,.6.2.8h7.7ZM109.9,95.3h-7.2s-.5.6-.8.5v.3s7.7,0,7.7,0l.3-.8ZM64.4,111.6c-2.5.7-5,.8-7.6.4-4.4,2.9-4,10.4,1.5,11.8s6.9-1.4,5.4-4.7-1.8-1.9-2.3-1.1.9.7,1,1.4c.7,2.8-3,3.5-4.6,1.6s-1-3.9.2-5.3,4.5-2.3,6.4-4ZM98.1,118.5c.2-.3,0-.6-.4-.7-1.1-.3-2.2,1.4-2.3,2.3-.2,2.9,3.2,4.2,5.6,3.7,5.5-1.2,6-8.6,1.8-11.7-.4-.2-1.7.2-2.2.2-1.8,0-3.7-.2-5.4-.6,0,.3.1.2.2.3,1.5,1.2,3.6,1.6,5.2,2.9s2.8,3.9,1.3,6-5.8,1-4.8-1.5,1-.8,1-.8ZM118.4,114.1c-.5,0-1.3-.7-1.7-.5s-1.2,1.5-1.5,1.7c-13.6,14.3-33.7,19.3-52.4,12.2s-14.4-7.9-19.9-14.1l-1.5.6c11.7,14.4,31,21.1,49.2,17.1s20.9-8.2,27.2-16.3.6-.7.5-.8ZM31.8,125.1c1,1.1,2.9.7,3.4-.6s-1.3-3.7-3-2.6-1.3,2.3-.4,3.3ZM125.6,121.6c-2,.4-1.9,3.8,0,4.1,3.5.4,3.2-4.7,0-4.1ZM51.2,143.8l3-12.5c0-.4-1.9-1-2.2-1.3l-7.8,10.4,1.8.9,1.4-1.9,2.4,1.2-.6,2.3,1.9.9ZM107.9,130.3c-.2,0-2.7,1.4-2.9,1.6-.4.4-.7,1.3-.6,1.9l4.1,8.8c.5.6,1.3.9,2.1.7s2.8-1.3,3-1.6c1-.9.8-1.8.4-2.9-1.1-2.6-2.7-5.1-3.8-7.7-.5-.8-1.5-1-2.3-.8ZM65.8,135.5l-1.7-.4h-.2c0,.1-2.4,10.8-2.4,10.8,0,.7.5,1.5,1.1,1.8s2.9.8,3.4.8c.8,0,1.5-.5,1.8-1.2l2.3-10.8-2-.4-2,9.5c0,1-2.7.4-2.3-.5l2-9.6ZM98.5,147.7l-2.9-12.1-.2-.2-1.8.5,2.9,12.4,2-.5ZM78.6,137.4l.2,12.7c.6.2,1.2,0,1.7,0,1.5,0,4.1.5,4.6-1.4s0-4.2,0-5.8.3-3.7-.5-4.7-.8-.7-1-.7h-5Z"/>
  <path d="M91.9,57c-.9-4-2.5-7.9-4.2-11.7l-1.8-3.6c3.3,9.6,7.6,19.6,5.3,30-3.5.1-6,4.3-5.9,7.5s0,.5.1.4c.4-2.2,1.8-5.2,3.9-6.2s2.6-.8,3,.6-.7,0-1,0c-2.6,0-4.4,3.1-4.6,5.4s.9,7.1,4.6,7.1c0,3.7,3.8,5.8,7.1,4.5s3.6-7.9,9.4-9.1,12,8.3,6.1,13.1-1.2.9-1.7.7c-.5-.4,1-1.8,1.3-2.3,3.2-5.9-4.2-11.6-7.7-5.8s-1.2,2.7-1.9,4c-3.3,5.6-10.5,5.4-14,.2-.2.1,0,.3,0,.4,1.9,4.1,5.9,7.6,10.5,8,7.2.7,13-5.3,20.4-1.5s7.2,9.4,2.6,13.1-9.5.1-7.8-4.1,1.7-2.1,2.5-1.5-.7,1.1-.9,1.5c-1.3,2.6,2.6,4.5,4.9,2.5s.2-7.3-2.9-8.5c-4.5-1.8-7.5.6-11.5,1.9-8.7,2.9-18.2-1.7-20.2-10.8-.2,0-.1.3,0,.4.2,1.8,1.2,4.6,2,6.3,4.1,8.5,12.9,11.5,20.9,5.8s2-1.8,2.5-2c1.4-.5-.3,1.8-.6,2.1-3.9,5.1-10.8,7.3-17,5.5-8.1-2.3-10.7-10.8-11.3-18.3-.1,0,0,1.9,0,2.1.2,5.1,1.2,10.4,3,15.1s6.4,11.4,3.8,16.6-8.8,3.3-8.1-1.8,2-3.5,3.7-3.4c0,.1.1.3.1.4,0,.4-1.3,1.4-1.6,2.1-1.6,3.2,2.5,5,3.8,2.1s0-3.9-.7-5.6-2.8-4.4-4-6.7c-2.9-5.3-3.9-11.3-3.9-17.4-.2,0-.2.3-.3.4,0,.6,0,1.4,0,2-.3,5-1.2,9.9-3.5,14.3s-6.5,9-5.1,12.6,5.5,1.2,3.8-2-2.5-2.4-1.2-2.5,2.7,1.6,3.1,2.5c2.3,5.3-5.8,8.2-8.1,2.1s2.2-11.1,4-15.8,3-11.1,3-16.9l-.4,3.1c-.9,5.3-3,10.7-7.8,13.5s-16.2,1.5-20.4-4.8-.8-.9-.6-1.6c.4-.6,1.8,1,2.1,1.3,9.2,7.2,18.6,3.3,22.6-7s1.1-3.2,1.2-4.8c-1.4,6.2-6.8,10.9-13.1,11.6s-7-1.1-11.3-2.6-7.8-1.2-10.3,2-1.3,7.8,3,7.2,3-3.3.8-4.3c.6-1.5,2.3.2,2.7,1.2,1.4,3.9-3.5,6.2-6.9,4.6-5.7-2.7-3.5-10.8,1.4-13.5,5.4-2.9,9.7-.7,14.8.7s12.8-.6,16.1-6.7.5-.8.4-1.1c-2.9,4.5-9.3,5.6-12.9,1.3s-1.8-3.5-2.8-5.2c-3.8-6.4-11.6,0-7.6,6.1s2,2,.6,1.9-2.6-1.9-3.1-2.8c-3.1-5.5,1.3-12.2,7.6-11.1s5.2,7.7,9.9,9.2,6.8-1.1,7-4.6c3.5,0,4.7-4.2,4.4-7.1s-2-5.3-4.6-5.4-1.3.5-.6-.5c1.3-1.9,5,1.5,5.5,2.9l1.2,3.2c.2-2.5-1-5.1-2.9-6.7s-1.7-1-2.9-1.2c-2.2-10.3,2-20.3,5.3-29.9l-1.8,3.5c-1.7,3.8-3.2,7.7-4.2,11.7-.3.2-2.8-4.5-2.9-5.1-.2-1.4,1.2-3.8,1.9-5.1,2.3-4.2,5.6-9,8.7-12.6s3-3.6,4-3.9,2.6,1.4,3.3,2.2c3.7,4,8.7,11.1,11.1,15.9s1.4,3,0,5.4-1.3,2.2-2.1,3.1Z"/>
  <path d="M126.1,101.4c-.2.2-1.1-1.2-1.3-1.4,1.5-3.7,2.7-7.5,3.4-11.4,5.9-32.9-21-64.1-55-59.2-27.3,4-45.6,31-41.7,57.9s1.9,8.4,3.4,12.4l-1.1,1.6c-1.7-3.9-3-8-3.7-12.2-5-28.3,13.9-57.1,42.7-61.4,36.2-5.4,64.4,28.9,56.5,63.6-.8,3.5-2,6.8-3.3,10.1Z"/>
  <path d="M118.4,114.1c0,0-.4.7-.5.8-6.3,8.1-17.2,14.1-27.2,16.3-18.2,4-37.5-2.7-49.2-17.1l1.5-.6c5.4,6.2,12.1,11.2,19.9,14.1,18.7,7,38.9,2.1,52.4-12.2s1.3-1.6,1.5-1.7c.4-.2,1.2.5,1.7.5Z"/>
  <path d="M24.5,50.8c.4,0,.5-.4,1-.5s.7,0,1,0,3.2,1.5,3.5,1.8c.6.6.7,1.6.5,2.4s-1.4,3.1-1.9,4.2-.3.7-.4.7l-12-5.6c0-.1,0-.3,0-.4.3-.8,1.7-3.9,2.2-4.7s1.4-1.2,2.5-1,2.3,1,2.7,1.2c.7.4,1.1.9,1,1.8ZM22.1,54c.1-.7,1.2-1.9.8-2.6s-2-1.1-2.3-1.2-.4,0-.6,0l-1,2.3,3,1.4ZM27.3,56.4c.1-.5,1.1-2.1.9-2.5-.5-.5-2.5-1.6-3.1-1.2s-1.2,2.3-1.1,2.4l3.3,1.4Z"/>
  <path d="M105.8,29l-.7,1.6-1.7-.9.6-1.8c-1.2-.4-2-1.4-1.8-2.7s2.1-4.6,2.7-5.8,1.3-2.9,1.8-3.4c1.2-1.4,3.6,0,4.9.7s2,1.2,1.8,2.8-1.6,3.4-2,4.3-1.7,3.9-2.4,4.7-1.9.7-3,.3ZM107.3,26.8l3.6-7.4c0-.5-1.8-1.4-2.1-1.5s-.6.1-.7.4l-3.4,7.2c0,.2,0,.4.2.6s1.8.8,1.9.9c.2,0,.4,0,.5-.1Z"/>
  <path d="M141.1,46.8l2.4,5.2c.4,1.9-.6,2.3-2.1,3.1-2.5,1.3-5.2,2.2-7.7,3.5-1.1.3-2-.2-2.6-1.1l-2.3-5.1,12.2-5.6ZM131.8,53.6c.4.6.9,2.8,1.7,2.7l7.4-3.4c.8-.6-.7-2.4-.9-3.1l-8.2,3.8Z"/>
  <path d="M122.2,23.7l1.8,1.5-6.7,8.1c-.4.6.3,1.2.7,1.5s.9.8,1.2.6l6.8-8.1c.1-.1.2,0,.3,0s1.4,1.2,1.4,1.3l-7.2,8.7c-.7.6-1.8.8-2.6.3s-2.8-2.4-3.1-2.8c-.6-.9-.4-2,.3-2.8l7-8.4Z"/>
  <path d="M97.2,15.3l-2.3-.4c0-.5.4-1.2.2-1.7s-2.1-.7-2.5-.5-.7,2.2-.5,2.6,3.4,2.1,3.9,2.6c.3.3.4.7.4,1.1,0,.7-.8,3.8-1.1,4.3s-.8.8-1.2.8c-.8.1-3.5-.4-4.3-.7-1.8-.7-1.4-2.7-1-4.1l2.3.4c0,.5-.4,1.1-.1,1.6s2.1.7,2.5.4l.6-2.3c0-.3-.7-.7-1-.9-.8-.6-3.1-1.8-3.3-2.6s0-.5,0-.8c0-.7.5-2.7.7-3.4s1.1-1.5,2-1.5,3.8.7,4.3,1.1c1.4,1,.8,2.6.5,4Z"/>
  <path d="M71.7,9.8l-1.9,6.3,4.5,6.7c-.6,0-1.9.6-2.4.3s-2.8-4.6-3.1-4.7c-1.2,1.6,0,3.5,0,5.3l-2.1.4-2.5-13.1c.4.1,2-.6,2.2-.3l1.1,5.2,1.8-5.9,2.4-.4Z"/>
  <path d="M42.4,37.6l-5.8-12.2,2.1-1.8,10.6,8.5-1.7,1.4-2.1-1.6c-.3.6-2,1.4-2.2,1.9s1.1,1.8.9,2.3-1.3,1.3-1.4,1.4-.1.2-.3.1ZM39.8,27.2l2.1,4.4.3.3,1.6-1.3-4.1-3.4Z"/>
  <path d="M78.6,137.4h5c.2,0,.8.5,1,.7.8,1.1.5,3.4.5,4.7s.4,4.4,0,5.8-3.1,1.4-4.6,1.4-1.1.3-1.7,0l-.2-12.7ZM80.8,147.9h2.1c.2,0,.3-.4.3-.6.3-2.2-.4-4.9-.1-7.2-.2-1.2-1.6-.5-2.4-.6v8.3Z"/>
  <path d="M107.9,130.3c.9-.2,1.8,0,2.3.8,1.1,2.6,2.8,5,3.8,7.7s.7,2-.4,2.9-2.7,1.5-3,1.6c-.8.2-1.6-.1-2.1-.7l-4.1-8.8c-.1-.6.2-1.5.6-1.9s2.7-1.5,2.9-1.6ZM110,140.8c.3.3,1.8-.5,2-.7s.2-.2.1-.4c-.4-.8-3.2-7.1-3.5-7.2s-2.3.6-2,1.3l3.3,6.9Z"/>
  <path d="M58.8,22.5c.4,1.5,1.7,2.6.5,4.1s-3.2,1.9-3.9,2c-1.1.3-1.8,0-2.4-1-1.5-2.3-2.4-6-4-8.4-.4-1.1,0-2.1.9-2.7s3.1-1.6,3.6-1.6c1.8-.3,2.6,1.6,3.1,2.9s.2.2,0,.3l-2,.8c-.3,0-.4-1.3-.9-1.5s-2.3.7-2.3,1.2l3.6,7.6c.3.1,1.9-.5,2.1-.7.6-.5-.2-1.4-.4-2l2-1Z"/>
  <path d="M64.4,111.6c-1.9,1.7-4.7,2-6.4,4s-1.5,3.8-.2,5.3,5.3,1.2,4.6-1.6-1.4-.9-1-1.4c.5-.7,2,.5,2.3,1.1,1.4,3.2-2.6,5.4-5.4,4.7-5.5-1.4-5.9-8.8-1.5-11.8,2.5.4,5.1.3,7.6-.4Z"/>
  <path d="M98.1,118.5c0,0-.8.2-1,.8-1,2.5,3,3.9,4.8,1.5s.5-4.5-1.3-6-3.7-1.7-5.2-2.9-.3,0-.2-.3c1.7.5,3.6.7,5.4.6s1.9-.4,2.2-.2c4.2,3.1,3.8,10.5-1.8,11.7s-5.7-.8-5.6-3.7,1.2-2.6,2.3-2.3.5.4.4.7Z"/>
  <path d="M65.8,135.5l-2,9.6c-.3.9,2.3,1.5,2.3.5l2-9.5,2,.4-2.3,10.8c-.3.7-1,1.2-1.8,1.2s-3-.6-3.4-.8c-.6-.3-1.1-1.2-1.1-1.8l2.4-10.7h.2c0-.1,1.7.3,1.7.3Z"/>
  <path d="M51.2,143.8l-1.9-.9.6-2.3-2.4-1.2-1.4,1.9-1.8-.9,7.8-10.4c.3.3,2.2.9,2.2,1.3l-3,12.5ZM50.4,138.6l1.3-5-3.1,4.1c0,.1,1.6,1,1.8.8Z"/>
  <path d="M91.3,75.3c2.4-.2,3.5,3,3.5,4.9s-1.5,5.7-4.2,5-3.4-9.5.7-9.9ZM93.2,78.8c.9-1-.1-3-1.5-2.2s.2,3.7,1.5,2.2ZM91.3,83.2c-.5.2,0,.9.4.6s0-.7-.4-.6Z"/>
  <path d="M68,75.3c2.1-.1,3.5,2.7,3.6,4.5s-.7,5.3-3.1,5.4c-4.4.2-4.9-9.7-.5-9.9ZM67.1,76.5c-1.4.3-1.3,2.9.3,2.8s1.5-3.1-.3-2.8ZM68.2,83.1c-.6,0-.6,1,.2.7s.2-.7-.2-.7Z"/>
  <polygon points="36.8 40.5 38.5 41.7 38.5 41.9 34.4 47.1 24 39.1 25.3 37.3 34.2 43.9 36.8 40.5"/>
  <path d="M125.2,46.3c0-.6-1.4-1.5-1-2l10.6-7.8c0,0,1.2,1.5,1.2,1.6s.1.3,0,.4l-10.7,7.7Z"/>
  <polygon points="98.5 147.7 96.5 148.3 93.5 135.9 95.4 135.4 95.6 135.7 98.5 147.7"/>
  <path d="M127,71.3h-33.9v-.3c0-.3,0-.5.4-.5h33.1c.5,0,.5.4.4.8Z"/>
  <path d="M66.7,71.3h-33.7v-.7c.1,0,33.2,0,33.2,0,.5,0,.5.4.4.8Z"/>
  <path d="M124.9,63.3h-31.6v-.8h31.3c.2,0,.4.6.3.8Z"/>
  <path d="M94.9,75.3c-.1,0-.4-.5-.6-.6,0-.2.7-.2.8-.2,1.9-.1,4.1,0,6,0,7.8,0,15.5,0,23.4.1s2-.4,3,0v.6s-32.6,0-32.6,0Z"/>
  <path d="M35.1,63.3v-.6c.8,0,1.4-.1,2-.1,9.5-.4,19.3.4,28.8,0,.5,0,.7.2.5.6h-.1c0,.1-31.2.1-31.2.1Z"/>
  <path d="M67,58.6c0,.4-.1.8-.6.8h-29.6c0,0-.2-.2-.2-.2l.3-.6h30.1Z"/>
  <path d="M123.3,58.6l.3.6c-1.1,0-2.2.1-3.3.1-7,0-14,0-21,0s-4.3.2-6,0-.4-.3-.4-.8h30.5Z"/>
  <path d="M126.1,67.2h-32.8v-.6c.1,0,32.4,0,32.4,0,.4,0,.5.3.4.6Z"/>
  <path d="M64.9,75.3h-32.4v-.6h32.6s.1-.2.2-.1l-.4.8Z"/>
  <polygon points="66.3 66.6 66.3 67.2 33.8 67.2 34.1 66.6 66.3 66.6"/>
  <path d="M94.8,55.2c.2-.3.4-.8.8-.8h25.6s.3.8.3.8h-26.7Z"/>
  <rect x="96.2" y="78.6" width="31.5" height=".6"/>
  <rect x="32.3" y="78.6" width="31.1" height=".6"/>
  <path d="M64.7,55.2h-26c0-.6.3-.7.8-.8,3.9-.4,8.4.3,12.3,0h12.6c0,.1.3.8.3.8Z"/>
  <path d="M119,51.2h-22.7v-.6c0-.1,0-.2.2-.2,1-.2,2.2.1,3.2.1,4.5,0,9-.1,13.5-.1s3.5,0,5.2,0c.3,0,.5.5.6.8Z"/>
  <path d="M41.1,51.2c.5-1.1.8-.6,1.7-.6,6.1.1,12.4,0,18.5-.1s1.4,0,2.1,0v.8h-22.3Z"/>
  <path d="M31.8,125.1c-.9-1-.7-2.6.4-3.3,1.7-1.1,3.8.7,3,2.6s-2.4,1.7-3.4.6Z"/>
  <path d="M116.1,47.1h-21.4l-.3-.6h21.1s.5.5.6.6Z"/>
  <path d="M125.6,121.6c3.3-.7,3.6,4.5,0,4.1s-2.1-3.6,0-4.1Z"/>
  <path d="M106.3,38.1c.2,0,.5.5.8.5v.3s-17.5,0-17.5,0c0,0-.5-.5-.6-.6v-.2s17.3,0,17.3,0Z"/>
  <polygon points="65.3 46.4 65.1 47.1 44.1 47.1 44.5 46.4 65.3 46.4"/>
  <path d="M70.6,38.1l-.4.8h-17v-.3c.2,0,.8-.5.8-.5h16.7Z"/>
  <path d="M112.3,43h-20l-.4-.6h19.8s.5.5.6.6Z"/>
  <path d="M67.8,42.4l-.3.6h-19.5c0-.1.5-.6.6-.6h19.2Z"/>
  <path d="M86.4,34.8s-.2-.5-.4-.6c0-.1.2-.2.3-.2,1.2-.2,3.8,0,5.2,0,2.4,0,4.7,0,7.1,0l1.7.8h-14Z"/>
  <path d="M59.8,34.8c.2-.2,1-.7,1.2-.7.8,0,2.3.1,3.2,0,3.1,0,6.2-.2,9.4-.1,0,0-.4.8-.4.8h-13.3Z"/>
  <path d="M44.1,82.6c.2.2-.7.9-1,.8-3.2-.3-7.2.4-10.3,0s-.4-.3-.4-.8h11.7Z"/>
  <path d="M127.6,82.6v.6h-11.7s-.4-.4-.4-.4v-.2s12.1,0,12.1,0Z"/>
  <polygon points="127.1 87.3 118 87.3 117.9 86.5 127 86.5 127.2 86.7 127.1 87.3"/>
  <path d="M109.9,95.3l-.3.8h-7.7v-.3c.3,0,.8-.5.8-.5h7.2Z"/>
  <path d="M57.8,96.1h-7.7c-.3-.2-.2-.5-.2-.8h7.1c0,0,.8.6.8.8Z"/>
  <path d="M41.7,86.6v.6c-3,0-5.9,0-8.7,0l-.2-.6h8.9Z"/>
  <path d="M92.9,87.3c.3-1.2,1.7-.6,2.5-.7s.5-.1.7-.1c.6,0,4.4,0,4.5.1,0,.1-.2.6-.3.6h-7.5Z"/>
  <path d="M63.7,82.6v.8c-.7.1-1.6-.1-2.4-.1-1.3,0-3,.3-4.3.1s-.8-.4-.8-.8h7.5Z"/>
  <polygon points="126.4 90.6 126.3 91.2 118.1 91.2 118.2 90.8 118.3 90.6 126.4 90.6"/>
  <polygon points="41.5 90.6 41.5 91.2 33.7 91.2 33.6 91 33.6 90.6 41.5 90.6"/>
  <path d="M66.3,86.6c.2,0,.6.4.4.6h-7.7l-.3-.6h7.5Z"/>
  <path d="M103.5,82.6c0,.1-.5.6-.6.6h-7.2l.3-.6h7.5Z"/>
  <path d="M125.3,94.8c0,.4-.2.6-.6.6-1.6.2-3.6-.2-5.2,0-.3,0-.4-.6-.2-.6.5.1,1-.1,1.4-.1.9,0,2,.1,2.9.1s1.1-.2,1.7,0Z"/>
  <path d="M34.9,95.4l-.2-.6c1,0,2,0,3,0s.5-.1.8-.1c.6,0,1.3.3,2,.1v.6h-5.6Z"/>
  <path d="M107.4,91.2l.2-.6h3.6c.3,0,.2.6,0,.6h-3.8Z"/>
  <polygon points="51.9 90.6 52.1 91.2 48.3 91.2 48.1 91 48.2 90.6 51.9 90.6"/>
  <path class="st0" d="M27.3,56.4l-3.3-1.4c0-.1,1-2.3,1.1-2.4.6-.3,2.6.8,3.1,1.2.2.4-.8,2-.9,2.5Z"/>
  <path class="st0" d="M22.1,54l-3-1.4,1-2.3c.2,0,.4-.1.6,0s2.2,1,2.3,1.2c.3.7-.7,1.9-.8,2.6Z"/>
  <path class="st0" d="M107.3,26.8c-.1.1-.3.2-.5.1s-1.8-.8-1.9-.9c-.2-.1-.2-.4-.2-.6l3.4-7.2c.1-.3.4-.4.7-.4s2.2,1,2.1,1.5l-3.6,7.4Z"/>
  <path class="st0" d="M131.8,53.6l8.2-3.8c.2.7,1.7,2.5.9,3.1l-7.4,3.4c-.8.1-1.3-2-1.7-2.7Z"/>
  <polygon class="st0" points="39.8 27.2 43.9 30.6 42.3 31.9 42 31.6 39.8 27.2"/>
  <path class="st0" d="M80.8,147.9v-8.3c.7,0,2.1-.6,2.3.6-.3,2.3.4,5,.1,7.2s-.2.6-.3.6h-2.1Z"/>
  <path class="st0" d="M110,140.8l-3.3-6.9c-.3-.7,1.6-1.4,2-1.3s3.1,6.4,3.5,7.2c0,.2,0,.3-.1.4-.2.2-1.7,1-2,.7Z"/>
  <path class="st0" d="M50.4,138.6c-.1.1-1.8-.7-1.8-.8l3.1-4.1-1.3,5Z"/>
  <path class="st0" d="M93.2,78.8c-1.4,1.5-3.4-1.3-1.5-2.2s2.4,1.3,1.5,2.2Z"/>
  <path class="st0" d="M91.3,83.2c.5-.1.8.3.4.6-.5.3-.9-.4-.4-.6Z"/>
  <path class="st0" d="M67.1,76.5c1.8-.4,2.2,2.6.3,2.8s-1.8-2.4-.3-2.8Z"/>
  <path class="st0" d="M68.2,83.1c.4,0,.7.6.2.7-.8.3-.9-.7-.2-.7Z"/>
</svg>