<?xml version="1.0" encoding="UTF-8"?>
<svg id="Layer_1" data-name="Layer 1" xmlns="http://www.w3.org/2000/svg" viewBox="0 0 160 160">
  <defs>
    <style>
      .cls-1 {
        fill: #fff;
      }
    </style>
  </defs>
  <g id="MSMTtQ">
    <g>
      <path d="M160,0v160H0V0h160ZM81.92,60.61c-.31-3.8-.48-7.61-.64-11.42-.38-9.07-.2-18.23-.77-27.3-.03-.51.23-2.18-.44-2.25-.64-.06-.66.99-.7,1.48-.75,9.38-.06,19.27-.63,28.71-.26,3.62-.32,7.28-.64,10.9l-.13-.44c-.02-10.93-.37-21.8-.86-32.7-.11-.4-.7-.57-.93-.2-.25.4-.09,2.75-.11,3.43-.23,6.5-.3,13.03-.51,19.52-.04,1.34.07,2.69-.13,4.02l-1.11-20.38c-.07-.3-.57-.42-.74-.16l-1.08,17.36-.89-11.87c-.39-.06-.2.1-.26.31-.23.91-.17,1.88-.26,2.8-.01.12-.06.48-.24.46l-.24-8.22c-.15-.21-.68-.07-.65.24l-.38,14.35c-.21,0-.24-.42-.26-.57-.32-3.87-.62-7.74-.89-11.61l-.55-.55c-.39.07-.43.32-.47.68-.34,3.12.22,6.89-.13,10.09l.27,5.61-.38,6.75c3.1,3.47,6.67,6.64,9.72,10.19,1.23,2.06,1.13,5.31,1.26,7.67.36,6.89.29,13.81,1.02,20.67.2,1.85.59,3.69.77,5.55.25-.04.21-.27.26-.44.51-1.75.72-4.52.89-6.39.67-7.51.49-15.07,1.02-22.58.14-1.99.44-3.92,1.85-5.43l8.94-9.11c-.61-5.18-.17-10.39-.2-15.58,0-1.86-.03-3.88-.13-5.74-.02-.39-.07-1.18-.13-1.53-.07-.42-.46-.38-.78-.26l-.1.15-1.16,12.55-.58-14.8c-.23-.04-.31.03-.43.2-.3.43-.11,4.57-.13,5.48s-.25,1.82-.13,2.74l-.25-1.59-.13-2.11h-.38s-.89,11.87-.89,11.87c-.27-1.57-.17-3.2-.25-4.79-.19-3.78-.3-7.84-.65-11.6-.02-.2-.13-.95-.24-1.03-.23-.11-.54-.11-.62.16l-1.17,20.58-.66-26.96c-.23-.4-.73-.41-.98,0-.22,2.67-.18,5.35-.27,8.02-.12,3.51-.32,7.06-.39,10.58-.1,4.68-.03,9.36-.12,14.04l-.13.44ZM65.82,40.85c-.37-.19-.78-.14-.85.33-.05,1.05-.09,2.11-.16,3.16-.17,2.53-.21,4.98.14,7.52.16,1.18.82,1.05.99-.13.19-1.24.37-3.2.4-4.45.05-2.11-.44-4.32-.53-6.43ZM94.78,40.85c-.34-.18-.56-.19-.71.21-.55,3.54-.72,7.12-.15,10.67.11.67.6,1.53.87.52.42-1.56.11-3.73.52-5.36l-.53-6.03ZM97.16,43.67c-.14-.01-.5.27-.55.44.02.8-.26,1.61-.28,2.39-.02.6.12,2.25.29,2.79.07.22.34.36.55.44.18-.1.34-.26.41-.45.43-1.1.4-4.06,0-5.17-.05-.13-.3-.44-.41-.44ZM62.47,43.78c-.17.04-.16.18-.2.31-.5,1.74-.45,3.79.11,5.49.41.13.6.15.77-.26.14-.33.39-2.26.39-2.67,0-.32-.31-2.47-.41-2.66-.05-.09-.06-.18-.18-.2h-.48ZM59.93,45.69c-.83.12-.77,1.75-.35,1.96,1.36.67,1.35-2.11.35-1.96ZM99.86,45.7c-.84.08-.92,2.09.11,2.03.95-.05.76-2.1-.11-2.03ZM67.75,63.29v6.7l2.94,2.67c.25.44-.08,1.69-.23,2.21-.5,1.77-1.99,4.39-3.83,4.98-3.28,1.05-4.37-2.98-6.29-4.76-2.7-2.51-6.67-2.06-8.3,1.34.76-.33,1.51-.82,2.36-.89,4.96-.42,5.11,6.14,9.25,7.59,3.65,1.27,6.97-1.32,8.61-4.4l1.34-3.32c.27,1.88.2,3.78.26,5.68.07,2.16.3,4.46.12,6.63s-1.44,3.9-1.85,5.93c-.57,2.79.1,5.55,2.12,7.58.1.1,1.04.93,1.14.84-.93-1.43-1.6-3.32-1.54-5.04.09-2.45,1.76-4.46,2.52-6.66,1.11-3.19.55-10.55.29-14.13-.14-1.92-.24-4.09-1.52-5.62-3.58,1.3-5.79-1.17-4.75-4.69l-2.66-2.64ZM92.25,69.98v-6.7l-2.66,2.64c.78,2.73-.19,5.31-3.4,5.01-.42-.04-1.13-.4-1.47-.19-1.71,2.5-1.4,6-1.53,8.93-.12,2.59-.47,6.03-.12,8.55.6,4.36,4.12,6.57,2.68,11.49-.25.84-.7,1.62-1.15,2.36l1.22-.89c3.96-4.01,1.72-7.57.54-11.9-.71-2.6-.3-5.54-.22-8.19.06-1.94-.02-3.88.25-5.81l.67,2.07c1.46,4,6,7.87,10.29,5.25,3.27-2,4-8.55,9.27-6.82.49.16.86.5,1.33.64-2.16-4.06-6.51-3.68-9.24-.37-1.1,1.34-1.99,3.73-3.97,3.94-3.36.36-5.32-4.32-5.49-7.09l.1-.27,2.9-2.65ZM74.26,69.79c.06-.22-.09-.26-.19-.38-.35-.46-1.65-1.75-2.11-2.11-.13-.1-.16-.25-.38-.19-.3,1.91.81,2.91,2.68,2.68ZM88.42,67.11l-2.17,1.98-.26.64c1.88.39,2.7-.88,2.43-2.62ZM72.6,85.42c.15-1.33-.11-2.91,0-4.27l-.92,1.57c-2.43,4.16-8.58,6.93-8.54,12.27.02,2.96,2.2,6.03,4.86,7.21-1.51-2.01-2.71-4.59-2.11-7.15.91-3.89,6.26-5.67,6.7-9.63ZM87.27,81.15v3.51c0,3.98,5.06,6.07,6.49,9.46,1.22,2.9.02,5.66-1.64,8.08,1.28-.59,2.51-1.74,3.29-2.89,4.86-7.16-3.27-11.14-6.71-15.95-.51-.72-.89-1.52-1.43-2.21ZM65.2,85.87c-3.23.99-5.52-1.94-8.84-1.24-5.11,1.07-4.97,7.82-.35,9.41-3.04-2.32-2.12-7.15,2-7.26.92-.02,2.01.42,2.92.5,1.54.13,3.16-.3,4.27-1.4ZM103.86,94.03c3.61-1.02,4.97-5.87,1.91-8.36-1.2-.98-2.5-1.22-4.03-1.09-2.38.21-4.45,2.17-6.95,1.28.7.61,1.97,1.27,2.88,1.39,2.27.3,4.51-1.33,6.69.33,1.97,1.5,1.71,4.09.19,5.81-.23.26-.5.39-.7.64ZM114.19,109.6v11.04c0,.89,1.16,1.93,2.01,2.07,1,.17,6.11.16,7.03-.06.78-.19,1.81-1.2,1.81-2.02v-10.97c-.18-.29-.27-.06-.32-.06h-2.49v10.14c-.86.64-2.79.53-3.9.45-.47-.03-1.02-.05-1.33-.45v-10.14h-2.81ZM24.69,109.6h-8.61v13.14h8.74c.51,0,1.5-.85,1.7-1.37.22-.59.26-3.37.09-4s-.96-1.17-1.6-1.27c.21-.28.69-.35.95-.65.64-.74.58-3.45.29-4.36-.2-.61-.92-1.39-1.56-1.5ZM32.54,109.6h-2.81v13.14h9.06v-2.55h-6.06l-.19-.19v-10.4ZM40.57,122.74h2.93l.98-2.4c1.56.1,3.44-.2,4.96-.03.22.03.28.01.43.21.3.41.51,1.69.78,2.22h2.93l-5.03-13.15-3.07.13-4.91,13.02ZM65.07,109.6h-7.85s-.72.38-.82.45c-.55.4-.9,1.01-1,1.68-.27,1.86-.19,6.44-.04,8.39.07.91.31,1.69,1.11,2.21.11.07.82.4.87.4h7.59v-2.55h-5.93c-.27,0-.93-.31-.84-.7l.12-7.03c.04-.06.42-.31.46-.31h5.81l.51-2.55ZM70.56,109.6h-2.81v13.14h2.81v-3.64c.36-.18,1.76-2.18,2.04-1.98l3.38,5.61h3l-4.59-7.72,4.46-5.42h-3.57l-4.72,5.87v-5.87ZM97.35,109.6h-8.48c-.11,0-.95.55-1.09.7-.21.22-.55.78-.6,1.06-.14.7-.12,3.42-.03,4.18.35,3.08,5.26,1.63,7.31,2,.48.14.63,2.16.22,2.46-.76.54-6.82-.05-7.13.21l-.4,2.54h8.48c.48,0,1.44-.82,1.67-1.27.41-.8.41-3.22.31-4.16-.32-2.98-3.28-2.17-5.43-2.23-.22,0-.43-.1-.63-.11-.39-.01-1.04.27-1.47-.09-.17-.15-.19-1.97-.13-2.3.06-.36.39-.41.7-.45.86-.1,5.82.19,6.05-.01l.65-2.54ZM107.37,124.66h3l-1.15-1.91c1.21-.21,1.97-1.06,2.14-2.27.25-1.81.22-6.65.03-8.51-.14-1.36-.98-2.27-2.35-2.37-1.53-.11-5.46-.2-6.86.04-.9.15-1.75,1.19-1.87,2.09.16,2.76-.25,5.82-.02,8.54.29,3.38,3.62,2.3,5.98,2.51l1.11,1.89ZM130.78,109.6h-2.68c0,.33-.11.63-.13.95-.05.67.13,1.33.12,1.9-.05,2.94-.46,7-.12,9.84.02.19.02.33.2.44h2.62v-13.14ZM133.84,122.74h8.48c.06,0,.76-.33.87-.4.67-.43,1.04-1.17,1.11-1.95.25-2.79-.19-5.96-.02-8.8.03-.68-1.26-1.99-1.84-1.99h-8.61v13.14ZM54.47,127.86l-1.58.11-2.23,5.74,1.15-.06.49-1.14,2.61-.06.59,1.2,1.15.06-2.18-5.85ZM65.84,127.85h-1.02v4.78c0,.52.87,1.01,1.35,1.07,1.09.15,3.46.26,3.63-1.2s-.17-3.16.13-4.66h-1.15v4.27c0,.82-2.93.82-2.93,0v-4.27ZM78.72,133.72h3.38c.54,0,1.18-.39,1.4-.89.28-.62.28-3,.13-3.71-.1-.45-.67-1.27-1.16-1.27h-3.76v5.87ZM93.52,127.85h-1.15c-.06.05.13.16.13.19v5.68h1.02v-5.87ZM103.57,127.87c-.4.09-.91.65-.98,1.06-.1.65-.09,2.77-.01,3.44.1.86.65,1.25,1.47,1.34.99.11,3.19.23,3.62-.84.22-.54.22-3.02.14-3.69-.07-.58-.49-1.23-1.09-1.33-.49-.08-2.7-.08-3.16.02ZM44.53,130.53h-28.45v.64h28.45v-.64ZM143.92,130.53h-28.45v.64h28.45v-.64Z"/>
      <path class="cls-1" d="M81.92,60.61l.13-.44c.09-4.68.02-9.36.12-14.04.07-3.52.27-7.07.39-10.58.09-2.67.05-5.36.27-8.02.25-.41.75-.4.98,0l.66,26.96,1.17-20.58c.08-.27.39-.28.62-.16.11.08.22.83.24,1.03.34,3.76.45,7.82.65,11.6.08,1.58-.02,3.21.25,4.79l.89-11.87h.38s.13,2.11.13,2.11l.25,1.59c-.11-.91.11-1.87.13-2.74s-.17-5.05.13-5.48c.12-.18.21-.24.43-.2l.58,14.8,1.16-12.55.1-.15c.32-.11.7-.15.78.26.06.34.11,1.14.13,1.53.1,1.87.12,3.89.13,5.74.03,5.19-.41,10.4.2,15.58l-8.94,9.11c-1.41,1.51-1.7,3.43-1.85,5.43-.54,7.51-.35,15.08-1.02,22.58-.17,1.87-.38,4.63-.89,6.39-.05.17-.01.4-.26.44-.17-1.86-.57-3.7-.77-5.55-.73-6.87-.66-13.79-1.02-20.67-.12-2.36-.03-5.62-1.26-7.67-3.05-3.54-6.61-6.72-9.72-10.19l.38-6.75-.27-5.61c.35-3.2-.21-6.96.13-10.09.04-.35.07-.61.47-.68l.55.55c.27,3.87.57,7.74.89,11.61.01.15.04.57.26.57l.38-14.35c-.03-.31.5-.46.65-.24l.24,8.22c.19.02.23-.33.24-.46.1-.93.03-1.89.26-2.8.05-.21-.13-.37.26-.31l.89,11.87,1.08-17.36c.17-.26.67-.13.74.16l1.11,20.38c.2-1.33.09-2.67.13-4.02.21-6.49.29-13.02.51-19.52.02-.68-.14-3.03.11-3.43.23-.37.82-.2.93.2.5,10.89.84,21.76.86,32.7l.13.44c.33-3.62.38-7.28.64-10.9.57-9.44-.11-19.33.63-28.71.04-.49.06-1.54.7-1.48.68.06.41,1.73.44,2.25.57,9.07.39,18.23.77,27.3.16,3.81.33,7.62.64,11.42Z"/>
      <path class="cls-1" d="M92.25,69.98l-2.9,2.65-.1.27c.16,2.77,2.13,7.45,5.49,7.09,1.97-.21,2.86-2.61,3.97-3.94,2.73-3.31,7.08-3.68,9.24.37-.47-.15-.85-.48-1.33-.64-5.27-1.73-5.99,4.82-9.27,6.82-4.29,2.62-8.83-1.25-10.29-5.25l-.67-2.07c-.27,1.93-.19,3.87-.25,5.81-.08,2.66-.49,5.6.22,8.19,1.18,4.33,3.43,7.89-.54,11.9l-1.22.89c.45-.74.91-1.52,1.15-2.36,1.44-4.92-2.08-7.12-2.68-11.49-.34-2.52,0-5.96.12-8.55.13-2.93-.17-6.43,1.53-8.93.34-.21,1.04.15,1.47.19,3.21.3,4.18-2.28,3.4-5.01l2.66-2.64v6.7Z"/>
      <path class="cls-1" d="M67.75,63.29l2.66,2.64c-1.05,3.52,1.17,5.98,4.75,4.69,1.29,1.53,1.38,3.7,1.52,5.62.26,3.58.82,10.94-.29,14.13-.76,2.2-2.43,4.21-2.52,6.66-.06,1.73.6,3.61,1.54,5.04-.09.09-1.03-.74-1.14-.84-2.02-2.03-2.69-4.79-2.12-7.58.42-2.03,1.68-3.83,1.85-5.93s-.06-4.47-.12-6.63c-.06-1.89.01-3.79-.26-5.68l-1.34,3.32c-1.64,3.07-4.96,5.67-8.61,4.4-4.14-1.44-4.29-8.01-9.25-7.59-.85.07-1.6.56-2.36.89,1.62-3.4,5.59-3.85,8.3-1.34,1.92,1.78,3.01,5.8,6.29,4.76,1.84-.59,3.33-3.21,3.83-4.98.15-.53.48-1.77.23-2.21l-2.94-2.67v-6.7Z"/>
      <path class="cls-1" d="M24.69,109.6c.64.11,1.36.89,1.56,1.5.29.9.34,3.61-.29,4.36-.25.3-.73.36-.95.65.64.1,1.43.62,1.6,1.27s.13,3.4-.09,4c-.19.51-1.19,1.37-1.7,1.37h-8.74v-13.14h8.61ZM18.95,112.15l-.19.19v2.55l.19.19h3.96c.06,0,.53-.24.59-.31.18-.51.35-2.63-.46-2.63h-4.08ZM23.54,117.51c-1.29-.23-3.23.17-4.59,0l-.18.21c.28.79-.12,1.47.01,2.26l.17.21h4.47c.79,0,.68-2.01.41-2.52-.09-.04-.21-.15-.29-.16Z"/>
      <path class="cls-1" d="M107.37,124.66l-1.11-1.89c-2.36-.21-5.69.87-5.98-2.51-.23-2.72.17-5.78.02-8.54.12-.89.97-1.93,1.87-2.09,1.41-.24,5.34-.15,6.86-.04,1.37.1,2.22,1.01,2.35,2.37.19,1.87.22,6.7-.03,8.51-.17,1.2-.93,2.06-2.14,2.27l1.15,1.91h-3ZM103.7,112.18c-.46.1-.68.49-.73.93-.16,1.37-.13,4.6,0,6.01.04.41.08.72.48.92.46.23,3.53.23,4.18.15.27-.03.77-.13.9-.38v-7.27c-.19-.26-.45-.35-.76-.39-.68-.08-3.46-.1-4.06.03Z"/>
      <path class="cls-1" d="M133.84,122.74v-13.14h8.61c.58,0,1.87,1.31,1.84,1.99-.17,2.83.27,6.01.02,8.8-.07.78-.44,1.52-1.11,1.95-.11.07-.82.4-.87.4h-8.48ZM136.52,120.06c1.29.09,2.73.24,4.02.13.78-.07,1.01-.15,1.09-.96.13-1.44.16-4.85,0-6.26-.03-.29-.26-.83-.58-.83h-4.34l-.19.19v7.72Z"/>
      <path class="cls-1" d="M97.35,109.6l-.65,2.54c-.23.2-5.19-.09-6.05.01-.31.04-.63.09-.7.45-.06.33-.05,2.15.13,2.3.43.36,1.08.07,1.47.09.2,0,.41.1.63.11,2.15.06,5.11-.75,5.43,2.23.1.94.1,3.35-.31,4.16-.23.45-1.18,1.27-1.67,1.27h-8.48l.4-2.54c.31-.26,6.37.34,7.13-.21.42-.3.27-2.32-.22-2.46-2.05-.37-6.96,1.08-7.31-2-.09-.77-.11-3.49.03-4.18.06-.28.4-.84.6-1.06.14-.15.98-.7,1.09-.7h8.48Z"/>
      <path class="cls-1" d="M114.19,109.6h2.81v10.14c.31.4.86.42,1.33.45,1.11.08,3.04.19,3.9-.45v-10.14h2.49s.14-.23.32.06v10.97c0,.81-1.03,1.83-1.81,2.02-.92.22-6.03.22-7.03.06-.85-.14-2.01-1.18-2.01-2.07v-11.04Z"/>
      <path class="cls-1" d="M70.56,109.6v5.87l4.72-5.87h3.57l-4.46,5.42,4.59,7.72h-3l-3.38-5.61c-.28-.21-1.68,1.8-2.04,1.98v3.64h-2.81v-13.14h2.81Z"/>
      <path class="cls-1" d="M40.57,122.74l4.91-13.02,3.07-.13,5.03,13.15h-2.93c-.26-.53-.48-1.81-.78-2.22-.14-.2-.2-.18-.43-.21-1.52-.18-3.4.13-4.96.03l-.98,2.4h-2.93ZM48.87,117.89l-1.66-5.1c-.27.14-.37.58-.48.86-.54,1.38-1.02,2.82-1.44,4.24h3.57Z"/>
      <path class="cls-1" d="M65.07,109.6l-.51,2.55h-5.81s-.41.25-.46.31l-.12,7.03c-.09.39.57.7.84.7h5.93v2.55h-7.59c-.06,0-.76-.33-.87-.4-.8-.52-1.04-1.3-1.11-2.21-.15-1.95-.23-6.53.04-8.39.1-.68.44-1.29,1-1.68.1-.07.77-.45.82-.45h7.85Z"/>
      <path class="cls-1" d="M72.6,85.42c-.44,3.95-5.79,5.73-6.7,9.63-.6,2.56.6,5.14,2.11,7.15-2.66-1.18-4.84-4.24-4.86-7.21-.04-5.34,6.11-8.12,8.54-12.27l.92-1.57c-.11,1.36.15,2.94,0,4.27Z"/>
      <path class="cls-1" d="M87.27,81.15c.54.69.91,1.49,1.43,2.21,3.44,4.81,11.57,8.79,6.71,15.95-.78,1.16-2.02,2.3-3.29,2.89,1.66-2.42,2.86-5.18,1.64-8.08-1.43-3.39-6.49-5.48-6.49-9.46v-3.51Z"/>
      <polygon class="cls-1" points="32.54 109.6 32.54 120 32.73 120.19 38.79 120.19 38.79 122.74 29.73 122.74 29.73 109.6 32.54 109.6"/>
      <path class="cls-1" d="M130.78,109.6v13.14h-2.62c-.18-.11-.18-.25-.2-.44-.33-2.84.07-6.91.12-9.84,0-.57-.17-1.23-.12-1.9.02-.32.14-.63.13-.95h2.68Z"/>
      <path class="cls-1" d="M65.2,85.87c-1.12,1.1-2.73,1.53-4.27,1.4-.91-.08-2-.52-2.92-.5-4.12.11-5.04,4.94-2,7.26-4.62-1.59-4.76-8.34.35-9.41,3.31-.69,5.6,2.24,8.84,1.24Z"/>
      <path class="cls-1" d="M103.86,94.03c.2-.24.47-.37.7-.64,1.52-1.72,1.78-4.31-.19-5.81-2.18-1.65-4.42-.02-6.69-.33-.91-.12-2.19-.79-2.88-1.39,2.5.89,4.57-1.08,6.95-1.28,1.53-.13,2.83.11,4.03,1.09,3.05,2.49,1.69,7.33-1.91,8.36Z"/>
      <rect class="cls-1" x="115.47" y="130.53" width="28.45" height=".64"/>
      <rect class="cls-1" x="16.08" y="130.53" width="28.45" height=".64"/>
      <path class="cls-1" d="M103.57,127.87c.46-.1,2.66-.1,3.16-.02.6.1,1.03.75,1.09,1.33.08.67.07,3.15-.14,3.69-.43,1.08-2.63.95-3.62.84-.82-.09-1.37-.48-1.47-1.34-.08-.67-.09-2.8.01-3.44.07-.41.57-.97.98-1.06ZM103.73,129.19v3.19c.66.5,2.29.5,2.93,0v-3.19c0-.43-1.88-.36-2.24-.33-.23.02-.62.06-.69.33Z"/>
      <path class="cls-1" d="M78.72,133.72v-5.87h3.76c.48,0,1.06.82,1.16,1.27.15.71.15,3.08-.13,3.71-.23.5-.87.89-1.4.89h-3.38ZM79.74,132.7h2.11c.06,0,.45-.19.51-.26.26-.26.27-2.56.19-2.99-.03-.17-.36-.58-.44-.58h-2.36v3.83Z"/>
      <path class="cls-1" d="M54.47,127.86l2.18,5.85-1.15-.06-.59-1.2-2.61.06-.49,1.14-1.15.06,2.23-5.74,1.58-.11ZM52.7,131.42h1.91l-.83-2.43c-.23-.07-.31.35-.38.51-.26.62-.44,1.29-.71,1.91Z"/>
      <path class="cls-1" d="M65.82,40.85c.09,2.11.59,4.33.53,6.43-.03,1.25-.22,3.2-.4,4.45-.18,1.18-.83,1.32-.99.13-.35-2.54-.31-4.99-.14-7.52.07-1.05.11-2.11.16-3.16.06-.47.48-.52.85-.33Z"/>
      <path class="cls-1" d="M94.78,40.85l.53,6.03c-.41,1.62-.1,3.79-.52,5.36-.27,1.02-.76.15-.87-.52-.57-3.55-.4-7.13.15-10.67.16-.39.38-.38.71-.21Z"/>
      <path class="cls-1" d="M65.84,127.85v4.27c0,.82,2.93.82,2.93,0v-4.27h1.15c-.3,1.5.05,3.2-.13,4.66s-2.54,1.35-3.63,1.2c-.48-.07-1.35-.56-1.35-1.07v-4.78h1.02Z"/>
      <path class="cls-1" d="M97.16,43.67c.12,0,.37.31.41.44.39,1.11.43,4.07,0,5.17-.08.19-.23.35-.41.45-.21-.07-.48-.21-.55-.44-.16-.54-.3-2.19-.29-2.79.02-.78.3-1.59.28-2.39.05-.17.41-.45.55-.44Z"/>
      <path class="cls-1" d="M62.47,43.78h.48c.12.02.13.12.18.2.1.19.41,2.35.41,2.66,0,.41-.25,2.34-.39,2.67-.17.42-.37.39-.77.26-.56-1.7-.62-3.75-.11-5.49.04-.13.03-.27.2-.31Z"/>
      <path class="cls-1" d="M93.52,127.85v5.87h-1.02v-5.68s-.19-.14-.13-.19h1.15Z"/>
      <path class="cls-1" d="M74.26,69.79c-1.86.23-2.98-.77-2.68-2.68.22-.06.26.09.38.19.46.35,1.75,1.65,2.11,2.11.1.13.25.16.19.38Z"/>
      <path class="cls-1" d="M88.42,67.11c.27,1.74-.54,3.01-2.43,2.62l.26-.64,2.17-1.98Z"/>
      <path class="cls-1" d="M59.93,45.69c1-.14,1.01,2.63-.35,1.96-.42-.21-.48-1.84.35-1.96Z"/>
      <path class="cls-1" d="M99.86,45.7c.87-.08,1.06,1.97.11,2.03-1.03.06-.94-1.95-.11-2.03Z"/>
      <path d="M18.95,112.15h4.08c.81,0,.64,2.11.46,2.63-.05.07-.53.31-.59.31h-3.96l-.19-.19v-2.55l.19-.19Z"/>
      <path d="M23.54,117.51c.08.01.2.12.29.16.26.51.37,2.52-.41,2.52h-4.47l-.17-.21c-.13-.79.27-1.48-.01-2.26l.18-.21c1.36.17,3.31-.23,4.59,0Z"/>
      <path d="M103.7,112.18c.6-.13,3.38-.11,4.06-.03.31.04.57.12.76.39v7.27c-.12.25-.63.35-.89.38-.66.07-3.73.08-4.18-.15-.4-.21-.44-.51-.48-.92-.13-1.4-.16-4.63,0-6.01.05-.44.27-.82.73-.93Z"/>
      <path d="M136.52,120.06v-7.72l.19-.19h4.34c.32,0,.54.54.58.83.17,1.41.14,4.82,0,6.26-.07.81-.31.89-1.09.96-1.29.11-2.74-.05-4.02-.13Z"/>
      <path d="M48.87,117.89h-3.57c.41-1.42.89-2.86,1.44-4.24.11-.28.2-.72.48-.86l1.66,5.1Z"/>
      <path d="M103.73,129.19c.07-.27.46-.3.69-.33.36-.04,2.24-.1,2.24.33v3.19c-.65.5-2.27.5-2.93,0v-3.19Z"/>
      <path d="M79.74,132.7v-3.83h2.36c.08,0,.41.41.44.58.08.43.06,2.73-.19,2.99-.06.06-.45.26-.51.26h-2.11Z"/>
      <path d="M52.7,131.42c.27-.62.44-1.29.71-1.91.07-.16.15-.58.38-.51l.83,2.43h-1.91Z"/>
    </g>
  </g>
</svg>